<svg width="331" height="295" viewBox="0 0 331 295" fill="none" xmlns="http://www.w3.org/2000/svg">
  <path
    d="M78.3984 283.016C79.1745 283.016 79.849 283.148 80.4219 283.414C80.9948 283.674 81.4375 284.055 81.75 284.555C82.0677 285.055 82.2266 285.661 82.2266 286.375C82.2266 287.156 82.0573 287.831 81.7188 288.398C81.3802 288.961 80.8932 289.396 80.2578 289.703C79.6224 290.005 78.862 290.156 77.9766 290.156C77.3828 290.156 76.8307 290.104 76.3203 290C75.8099 289.896 75.3802 289.74 75.0312 289.531V288.297C75.4115 288.526 75.8724 288.708 76.4141 288.844C76.9557 288.979 77.4818 289.047 77.9922 289.047C78.5703 289.047 79.0755 288.956 79.5078 288.773C79.9453 288.586 80.2839 288.305 80.5234 287.93C80.7682 287.549 80.8906 287.073 80.8906 286.5C80.8906 285.74 80.6562 285.154 80.1875 284.742C79.724 284.326 78.9896 284.117 77.9844 284.117C77.6615 284.117 77.3073 284.143 76.9219 284.195C76.5365 284.247 76.2188 284.305 75.9688 284.367L75.3125 283.938L75.75 278.578H81.4297V279.766H76.8594L76.5703 283.211C76.7682 283.169 77.0234 283.128 77.3359 283.086C77.6484 283.039 78.0026 283.016 78.3984 283.016ZM91.4922 284.273C91.4922 285.201 91.4219 286.029 91.2812 286.758C91.1406 287.487 90.9193 288.104 90.6172 288.609C90.3151 289.115 89.9245 289.5 89.4453 289.766C88.9661 290.026 88.3906 290.156 87.7188 290.156C86.8698 290.156 86.1667 289.924 85.6094 289.461C85.0573 288.997 84.6432 288.328 84.3672 287.453C84.0964 286.573 83.9609 285.513 83.9609 284.273C83.9609 283.055 84.0833 282.008 84.3281 281.133C84.5781 280.253 84.9792 279.578 85.5312 279.109C86.0833 278.635 86.8125 278.398 87.7188 278.398C88.5781 278.398 89.2865 278.633 89.8438 279.102C90.401 279.565 90.8151 280.237 91.0859 281.117C91.3568 281.992 91.4922 283.044 91.4922 284.273ZM85.2656 284.273C85.2656 285.336 85.3464 286.221 85.5078 286.93C85.6693 287.638 85.9297 288.169 86.2891 288.523C86.6536 288.872 87.1302 289.047 87.7188 289.047C88.3073 289.047 88.7812 288.872 89.1406 288.523C89.5052 288.174 89.7682 287.646 89.9297 286.938C90.0964 286.229 90.1797 285.341 90.1797 284.273C90.1797 283.227 90.099 282.352 89.9375 281.648C89.776 280.94 89.5156 280.409 89.1562 280.055C88.7969 279.695 88.3177 279.516 87.7188 279.516C87.1198 279.516 86.6406 279.695 86.2812 280.055C85.9219 280.409 85.6615 280.94 85.5 281.648C85.3438 282.352 85.2656 283.227 85.2656 284.273ZM95.4297 278.414C96.2109 278.414 96.8021 278.727 97.2031 279.352C97.6094 279.971 97.8125 280.849 97.8125 281.984C97.8125 283.12 97.6172 284.005 97.2266 284.641C96.8359 285.271 96.237 285.586 95.4297 285.586C94.6797 285.586 94.1042 285.271 93.7031 284.641C93.3073 284.005 93.1094 283.12 93.1094 281.984C93.1094 280.849 93.2995 279.971 93.6797 279.352C94.0599 278.727 94.6432 278.414 95.4297 278.414ZM95.4297 279.344C95.0078 279.344 94.6979 279.565 94.5 280.008C94.3021 280.445 94.2031 281.104 94.2031 281.984C94.2031 282.865 94.3021 283.529 94.5 283.977C94.6979 284.424 95.0078 284.648 95.4297 284.648C95.8672 284.648 96.1927 284.424 96.4062 283.977C96.6198 283.529 96.7266 282.865 96.7266 281.984C96.7266 281.109 96.6198 280.451 96.4062 280.008C96.1979 279.565 95.8724 279.344 95.4297 279.344ZM102.664 278.578L96.3281 290H95.1875L101.523 278.578H102.664ZM102.359 282.992C103.135 282.992 103.727 283.305 104.133 283.93C104.539 284.549 104.742 285.427 104.742 286.562C104.742 287.693 104.547 288.576 104.156 289.211C103.766 289.841 103.167 290.156 102.359 290.156C101.604 290.156 101.029 289.841 100.633 289.211C100.237 288.576 100.039 287.693 100.039 286.562C100.039 285.427 100.227 284.549 100.602 283.93C100.982 283.305 101.568 282.992 102.359 282.992ZM102.359 283.93C101.938 283.93 101.628 284.148 101.43 284.586C101.232 285.023 101.133 285.682 101.133 286.562C101.133 287.443 101.232 288.107 101.43 288.555C101.628 288.997 101.938 289.219 102.359 289.219C102.797 289.219 103.122 289 103.336 288.562C103.549 288.12 103.656 287.453 103.656 286.562C103.656 285.688 103.549 285.031 103.336 284.594C103.128 284.151 102.802 283.93 102.359 283.93Z"
    fill="#3F3F3F" />
  <path
    d="M8.27344 133H0.789062V131.914L3.84375 128.812C4.41146 128.24 4.88802 127.729 5.27344 127.281C5.66406 126.833 5.96094 126.393 6.16406 125.961C6.36719 125.523 6.46875 125.044 6.46875 124.523C6.46875 123.878 6.27604 123.385 5.89062 123.047C5.51042 122.703 5.00781 122.531 4.38281 122.531C3.83594 122.531 3.35156 122.625 2.92969 122.812C2.50781 123 2.07552 123.266 1.63281 123.609L0.9375 122.734C1.23958 122.479 1.56771 122.253 1.92188 122.055C2.28125 121.857 2.66406 121.701 3.07031 121.586C3.48177 121.471 3.91927 121.414 4.38281 121.414C5.08594 121.414 5.69271 121.536 6.20312 121.781C6.71354 122.026 7.10677 122.375 7.38281 122.828C7.66406 123.281 7.80469 123.82 7.80469 124.445C7.80469 125.049 7.6849 125.612 7.44531 126.133C7.20573 126.648 6.86979 127.161 6.4375 127.672C6.00521 128.177 5.5 128.714 4.92188 129.281L2.4375 131.758V131.812H8.27344V133ZM17.4922 127.273C17.4922 128.201 17.4219 129.029 17.2812 129.758C17.1406 130.487 16.9193 131.104 16.6172 131.609C16.3151 132.115 15.9245 132.5 15.4453 132.766C14.9661 133.026 14.3906 133.156 13.7188 133.156C12.8698 133.156 12.1667 132.924 11.6094 132.461C11.0573 131.997 10.6432 131.328 10.3672 130.453C10.0964 129.573 9.96094 128.513 9.96094 127.273C9.96094 126.055 10.0833 125.008 10.3281 124.133C10.5781 123.253 10.9792 122.578 11.5312 122.109C12.0833 121.635 12.8125 121.398 13.7188 121.398C14.5781 121.398 15.2865 121.633 15.8438 122.102C16.401 122.565 16.8151 123.237 17.0859 124.117C17.3568 124.992 17.4922 126.044 17.4922 127.273ZM11.2656 127.273C11.2656 128.336 11.3464 129.221 11.5078 129.93C11.6693 130.638 11.9297 131.169 12.2891 131.523C12.6536 131.872 13.1302 132.047 13.7188 132.047C14.3073 132.047 14.7812 131.872 15.1406 131.523C15.5052 131.174 15.7682 130.646 15.9297 129.938C16.0964 129.229 16.1797 128.341 16.1797 127.273C16.1797 126.227 16.099 125.352 15.9375 124.648C15.776 123.94 15.5156 123.409 15.1562 123.055C14.7969 122.695 14.3177 122.516 13.7188 122.516C13.1198 122.516 12.6406 122.695 12.2812 123.055C11.9219 123.409 11.6615 123.94 11.5 124.648C11.3438 125.352 11.2656 126.227 11.2656 127.273ZM21.4297 121.414C22.2109 121.414 22.8021 121.727 23.2031 122.352C23.6094 122.971 23.8125 123.849 23.8125 124.984C23.8125 126.12 23.6172 127.005 23.2266 127.641C22.8359 128.271 22.237 128.586 21.4297 128.586C20.6797 128.586 20.1042 128.271 19.7031 127.641C19.3073 127.005 19.1094 126.12 19.1094 124.984C19.1094 123.849 19.2995 122.971 19.6797 122.352C20.0599 121.727 20.6432 121.414 21.4297 121.414ZM21.4297 122.344C21.0078 122.344 20.6979 122.565 20.5 123.008C20.3021 123.445 20.2031 124.104 20.2031 124.984C20.2031 125.865 20.3021 126.529 20.5 126.977C20.6979 127.424 21.0078 127.648 21.4297 127.648C21.8672 127.648 22.1927 127.424 22.4062 126.977C22.6198 126.529 22.7266 125.865 22.7266 124.984C22.7266 124.109 22.6198 123.451 22.4062 123.008C22.1979 122.565 21.8724 122.344 21.4297 122.344ZM28.6641 121.578L22.3281 133H21.1875L27.5234 121.578H28.6641ZM28.3594 125.992C29.1354 125.992 29.7266 126.305 30.1328 126.93C30.5391 127.549 30.7422 128.427 30.7422 129.562C30.7422 130.693 30.5469 131.576 30.1562 132.211C29.7656 132.841 29.1667 133.156 28.3594 133.156C27.6042 133.156 27.0286 132.841 26.6328 132.211C26.237 131.576 26.0391 130.693 26.0391 129.562C26.0391 128.427 26.2266 127.549 26.6016 126.93C26.9818 126.305 27.5677 125.992 28.3594 125.992ZM28.3594 126.93C27.9375 126.93 27.6276 127.148 27.4297 127.586C27.2318 128.023 27.1328 128.682 27.1328 129.562C27.1328 130.443 27.2318 131.107 27.4297 131.555C27.6276 131.997 27.9375 132.219 28.3594 132.219C28.7969 132.219 29.1224 132 29.3359 131.562C29.5495 131.12 29.6562 130.453 29.6562 129.562C29.6562 128.688 29.5495 128.031 29.3359 127.594C29.1276 127.151 28.8021 126.93 28.3594 126.93Z"
    fill="#3F3F3F" />
  <path
    d="M153.273 17H145.789V15.9141L148.844 12.8125C149.411 12.2396 149.888 11.7292 150.273 11.2812C150.664 10.8333 150.961 10.3932 151.164 9.96094C151.367 9.52344 151.469 9.04427 151.469 8.52344C151.469 7.8776 151.276 7.38542 150.891 7.04688C150.51 6.70312 150.008 6.53125 149.383 6.53125C148.836 6.53125 148.352 6.625 147.93 6.8125C147.508 7 147.076 7.26562 146.633 7.60938L145.938 6.73438C146.24 6.47917 146.568 6.2526 146.922 6.05469C147.281 5.85677 147.664 5.70052 148.07 5.58594C148.482 5.47135 148.919 5.41406 149.383 5.41406C150.086 5.41406 150.693 5.53646 151.203 5.78125C151.714 6.02604 152.107 6.375 152.383 6.82812C152.664 7.28125 152.805 7.82031 152.805 8.44531C152.805 9.04948 152.685 9.61198 152.445 10.1328C152.206 10.6484 151.87 11.1615 151.438 11.6719C151.005 12.1771 150.5 12.7135 149.922 13.2812L147.438 15.7578V15.8125H153.273V17ZM162.492 11.2734C162.492 12.2005 162.422 13.0286 162.281 13.7578C162.141 14.487 161.919 15.1042 161.617 15.6094C161.315 16.1146 160.924 16.5 160.445 16.7656C159.966 17.026 159.391 17.1562 158.719 17.1562C157.87 17.1562 157.167 16.9245 156.609 16.4609C156.057 15.9974 155.643 15.3281 155.367 14.4531C155.096 13.5729 154.961 12.513 154.961 11.2734C154.961 10.0547 155.083 9.00781 155.328 8.13281C155.578 7.2526 155.979 6.57812 156.531 6.10938C157.083 5.63542 157.812 5.39844 158.719 5.39844C159.578 5.39844 160.286 5.63281 160.844 6.10156C161.401 6.5651 161.815 7.23698 162.086 8.11719C162.357 8.99219 162.492 10.0443 162.492 11.2734ZM156.266 11.2734C156.266 12.3359 156.346 13.2214 156.508 13.9297C156.669 14.638 156.93 15.1693 157.289 15.5234C157.654 15.8724 158.13 16.0469 158.719 16.0469C159.307 16.0469 159.781 15.8724 160.141 15.5234C160.505 15.1745 160.768 14.6458 160.93 13.9375C161.096 13.2292 161.18 12.3411 161.18 11.2734C161.18 10.2266 161.099 9.35156 160.938 8.64844C160.776 7.9401 160.516 7.40885 160.156 7.05469C159.797 6.69531 159.318 6.51562 158.719 6.51562C158.12 6.51562 157.641 6.69531 157.281 7.05469C156.922 7.40885 156.661 7.9401 156.5 8.64844C156.344 9.35156 156.266 10.2266 156.266 11.2734ZM166.43 5.41406C167.211 5.41406 167.802 5.72656 168.203 6.35156C168.609 6.97135 168.812 7.84896 168.812 8.98438C168.812 10.1198 168.617 11.0052 168.227 11.6406C167.836 12.2708 167.237 12.5859 166.43 12.5859C165.68 12.5859 165.104 12.2708 164.703 11.6406C164.307 11.0052 164.109 10.1198 164.109 8.98438C164.109 7.84896 164.299 6.97135 164.68 6.35156C165.06 5.72656 165.643 5.41406 166.43 5.41406ZM166.43 6.34375C166.008 6.34375 165.698 6.5651 165.5 7.00781C165.302 7.44531 165.203 8.10417 165.203 8.98438C165.203 9.86458 165.302 10.5286 165.5 10.9766C165.698 11.4245 166.008 11.6484 166.43 11.6484C166.867 11.6484 167.193 11.4245 167.406 10.9766C167.62 10.5286 167.727 9.86458 167.727 8.98438C167.727 8.10938 167.62 7.45052 167.406 7.00781C167.198 6.5651 166.872 6.34375 166.43 6.34375ZM173.664 5.57812L167.328 17H166.188L172.523 5.57812H173.664ZM173.359 9.99219C174.135 9.99219 174.727 10.3047 175.133 10.9297C175.539 11.5495 175.742 12.4271 175.742 13.5625C175.742 14.6927 175.547 15.5755 175.156 16.2109C174.766 16.8411 174.167 17.1562 173.359 17.1562C172.604 17.1562 172.029 16.8411 171.633 16.2109C171.237 15.5755 171.039 14.6927 171.039 13.5625C171.039 12.4271 171.227 11.5495 171.602 10.9297C171.982 10.3047 172.568 9.99219 173.359 9.99219ZM173.359 10.9297C172.938 10.9297 172.628 11.1484 172.43 11.5859C172.232 12.0234 172.133 12.6823 172.133 13.5625C172.133 14.4427 172.232 15.1068 172.43 15.5547C172.628 15.9974 172.938 16.2188 173.359 16.2188C173.797 16.2188 174.122 16 174.336 15.5625C174.549 15.1198 174.656 14.4531 174.656 13.5625C174.656 12.6875 174.549 12.0312 174.336 11.5938C174.128 11.151 173.802 10.9297 173.359 10.9297Z"
    fill="#FEF2EC" />
  <path
    d="M273.398 99.0156C274.174 99.0156 274.849 99.1484 275.422 99.4141C275.995 99.6745 276.438 100.055 276.75 100.555C277.068 101.055 277.227 101.661 277.227 102.375C277.227 103.156 277.057 103.831 276.719 104.398C276.38 104.961 275.893 105.396 275.258 105.703C274.622 106.005 273.862 106.156 272.977 106.156C272.383 106.156 271.831 106.104 271.32 106C270.81 105.896 270.38 105.74 270.031 105.531V104.297C270.411 104.526 270.872 104.708 271.414 104.844C271.956 104.979 272.482 105.047 272.992 105.047C273.57 105.047 274.076 104.956 274.508 104.773C274.945 104.586 275.284 104.305 275.523 103.93C275.768 103.549 275.891 103.073 275.891 102.5C275.891 101.74 275.656 101.154 275.188 100.742C274.724 100.326 273.99 100.117 272.984 100.117C272.661 100.117 272.307 100.143 271.922 100.195C271.536 100.247 271.219 100.305 270.969 100.367L270.312 99.9375L270.75 94.5781H276.43V95.7656H271.859L271.57 99.2109C271.768 99.1693 272.023 99.1276 272.336 99.0859C272.648 99.0391 273.003 99.0156 273.398 99.0156ZM281.273 94.4141C282.055 94.4141 282.646 94.7266 283.047 95.3516C283.453 95.9714 283.656 96.849 283.656 97.9844C283.656 99.1198 283.461 100.005 283.07 100.641C282.68 101.271 282.081 101.586 281.273 101.586C280.523 101.586 279.948 101.271 279.547 100.641C279.151 100.005 278.953 99.1198 278.953 97.9844C278.953 96.849 279.143 95.9714 279.523 95.3516C279.904 94.7266 280.487 94.4141 281.273 94.4141ZM281.273 95.3438C280.852 95.3438 280.542 95.5651 280.344 96.0078C280.146 96.4453 280.047 97.1042 280.047 97.9844C280.047 98.8646 280.146 99.5286 280.344 99.9766C280.542 100.424 280.852 100.648 281.273 100.648C281.711 100.648 282.036 100.424 282.25 99.9766C282.464 99.5286 282.57 98.8646 282.57 97.9844C282.57 97.1094 282.464 96.4505 282.25 96.0078C282.042 95.5651 281.716 95.3438 281.273 95.3438ZM288.508 94.5781L282.172 106H281.031L287.367 94.5781H288.508ZM288.203 98.9922C288.979 98.9922 289.57 99.3047 289.977 99.9297C290.383 100.549 290.586 101.427 290.586 102.562C290.586 103.693 290.391 104.576 290 105.211C289.609 105.841 289.01 106.156 288.203 106.156C287.448 106.156 286.872 105.841 286.477 105.211C286.081 104.576 285.883 103.693 285.883 102.562C285.883 101.427 286.07 100.549 286.445 99.9297C286.826 99.3047 287.411 98.9922 288.203 98.9922ZM288.203 99.9297C287.781 99.9297 287.471 100.148 287.273 100.586C287.076 101.023 286.977 101.682 286.977 102.562C286.977 103.443 287.076 104.107 287.273 104.555C287.471 104.997 287.781 105.219 288.203 105.219C288.641 105.219 288.966 105 289.18 104.562C289.393 104.12 289.5 103.453 289.5 102.562C289.5 101.688 289.393 101.031 289.18 100.594C288.971 100.151 288.646 99.9297 288.203 99.9297Z"
    fill="#FEF2EC" />
  <path
    d="M312.398 155.016C313.174 155.016 313.849 155.148 314.422 155.414C314.995 155.674 315.438 156.055 315.75 156.555C316.068 157.055 316.227 157.661 316.227 158.375C316.227 159.156 316.057 159.831 315.719 160.398C315.38 160.961 314.893 161.396 314.258 161.703C313.622 162.005 312.862 162.156 311.977 162.156C311.383 162.156 310.831 162.104 310.32 162C309.81 161.896 309.38 161.74 309.031 161.531V160.297C309.411 160.526 309.872 160.708 310.414 160.844C310.956 160.979 311.482 161.047 311.992 161.047C312.57 161.047 313.076 160.956 313.508 160.773C313.945 160.586 314.284 160.305 314.523 159.93C314.768 159.549 314.891 159.073 314.891 158.5C314.891 157.74 314.656 157.154 314.188 156.742C313.724 156.326 312.99 156.117 311.984 156.117C311.661 156.117 311.307 156.143 310.922 156.195C310.536 156.247 310.219 156.305 309.969 156.367L309.312 155.938L309.75 150.578H315.43V151.766H310.859L310.57 155.211C310.768 155.169 311.023 155.128 311.336 155.086C311.648 155.039 312.003 155.016 312.398 155.016ZM320.273 150.414C321.055 150.414 321.646 150.727 322.047 151.352C322.453 151.971 322.656 152.849 322.656 153.984C322.656 155.12 322.461 156.005 322.07 156.641C321.68 157.271 321.081 157.586 320.273 157.586C319.523 157.586 318.948 157.271 318.547 156.641C318.151 156.005 317.953 155.12 317.953 153.984C317.953 152.849 318.143 151.971 318.523 151.352C318.904 150.727 319.487 150.414 320.273 150.414ZM320.273 151.344C319.852 151.344 319.542 151.565 319.344 152.008C319.146 152.445 319.047 153.104 319.047 153.984C319.047 154.865 319.146 155.529 319.344 155.977C319.542 156.424 319.852 156.648 320.273 156.648C320.711 156.648 321.036 156.424 321.25 155.977C321.464 155.529 321.57 154.865 321.57 153.984C321.57 153.109 321.464 152.451 321.25 152.008C321.042 151.565 320.716 151.344 320.273 151.344ZM327.508 150.578L321.172 162H320.031L326.367 150.578H327.508ZM327.203 154.992C327.979 154.992 328.57 155.305 328.977 155.93C329.383 156.549 329.586 157.427 329.586 158.562C329.586 159.693 329.391 160.576 329 161.211C328.609 161.841 328.01 162.156 327.203 162.156C326.448 162.156 325.872 161.841 325.477 161.211C325.081 160.576 324.883 159.693 324.883 158.562C324.883 157.427 325.07 156.549 325.445 155.93C325.826 155.305 326.411 154.992 327.203 154.992ZM327.203 155.93C326.781 155.93 326.471 156.148 326.273 156.586C326.076 157.023 325.977 157.682 325.977 158.562C325.977 159.443 326.076 160.107 326.273 160.555C326.471 160.997 326.781 161.219 327.203 161.219C327.641 161.219 327.966 161 328.18 160.562C328.393 160.12 328.5 159.453 328.5 158.562C328.5 157.688 328.393 157.031 328.18 156.594C327.971 156.151 327.646 155.93 327.203 155.93Z"
    fill="#FEF2EC" />
</svg>