<svg width="50" height="107" viewBox="0 0 50 107" fill="none" xmlns="http://www.w3.org/2000/svg">
  <path
    d="M38.5284 21.9793C39.1605 24.2301 40.6956 26.1208 42.321 27.8014C38.4682 30.3523 35.3979 33.8935 31.2742 35.5441C31.2742 35.5441 31.2441 35.5441 31.2441 35.5741C31.0936 35.6342 30.913 35.6942 30.7625 35.7542C30.7324 35.7242 30.7324 35.6642 30.7023 35.6342C29.7692 33.5934 29.0769 31.5227 28.4146 29.452C27.6019 30.4723 26.0066 30.6824 24.9531 29.9922C24.622 29.7521 24.321 29.452 24.0501 29.1519C22.6053 27.5313 21.3109 25.7607 20.2574 23.87C19.7457 23.96 19.2039 24.1101 18.6621 24.2902C18.5116 24.3502 18.3611 24.3802 18.2106 24.3202C17.9698 24.2301 17.8795 23.96 17.8494 23.72C17.5785 21.8893 18.5116 20.0587 18.2407 18.228C18.1504 17.5978 17.9096 16.9976 17.6989 16.3974C17.0668 14.5667 16.6755 12.586 17.1872 10.7254C17.9698 7.93439 20.7691 5.9837 23.6889 5.65358C26.5785 5.32346 29.4983 6.34382 31.9665 7.87436C33.1103 8.59462 34.224 9.43492 35.0066 10.5153C35.4581 11.1155 35.7892 11.8058 36.0902 12.466C37.0535 14.5667 37.7157 16.8175 38.0769 19.0983C38.1672 20.0887 38.2575 21.079 38.5284 21.9793Z"
    fill="#F2E7D5" />
  <path
    d="M33.6823 18.5881C33.1706 19.1283 32.4482 19.4584 31.7258 19.5185C31.3947 19.5485 31.0335 19.4885 30.8228 19.2484"
    stroke="#404040" stroke-miterlimit="10" stroke-linecap="round" stroke-linejoin="round" />
  <path
    d="M31.2142 35.5141L31.2443 35.5741C31.2443 35.5741 31.2142 35.5741 31.2142 35.6041C31.0637 35.6641 30.8831 35.7242 30.7326 35.7842C29.7694 33.7134 29.0771 31.5827 28.3848 29.4819C30.3413 27.5013 31.9968 25.2204 33.4115 22.8496C33.1105 27.1111 32.8095 31.4927 31.2142 35.5141Z"
    fill="#404040" />
  <path
    d="M19.1738 17.0576C19.7758 16.6974 20.5284 16.5174 21.2508 16.6074C21.5518 16.6374 21.8227 16.7275 22.0936 16.8175C22.4247 16.9375 22.7558 17.0876 23.0568 17.2677"
    stroke="#404040" stroke-miterlimit="10" stroke-linecap="round" stroke-linejoin="round" />
  <path
    d="M20.5886 18.108C20.5284 18.228 20.4682 18.348 20.3779 18.4681C20.5886 18.9783 20.8595 19.5184 21.3712 19.7285C21.4314 19.7585 21.4916 19.7885 21.5819 19.7585C21.7324 19.7285 21.7927 19.6085 21.8228 19.4584C21.8529 19.2484 21.8228 19.0083 21.7024 18.8282C21.6121 18.6481 21.4615 18.4681 21.2809 18.318C21.1605 18.228 21.0401 18.108 20.9197 18.0779C20.7692 18.0479 20.6187 18.0479 20.5886 18.108Z"
    fill="#404040" />
  <path
    d="M35.2476 87.4324L35.2175 87.5524C34.4048 90.1634 33.7125 92.7743 33.1706 95.4452L33.0502 95.4152C32.2676 95.2051 31.485 95.0251 30.7325 94.695C28.8663 93.8847 27.4215 92.2641 26.6088 90.4335C25.796 88.6028 25.5552 86.5321 25.7358 84.5214C25.9466 84.5514 26.1573 84.5514 26.368 84.5814C27.6924 84.7314 29.0168 84.9715 30.281 85.4217C31.4248 85.8118 32.5084 86.382 33.6523 86.8322C34.1339 87.0423 34.6757 87.2523 35.2476 87.4324Z"
    fill="#EF7334" />
  <path
    d="M40.2142 88.8129C41.8095 89.2031 43.5253 89.5932 45.1808 89.4732L45.2109 89.6833C43.3447 94.9051 41.4483 100.337 41.8095 105.919C38.4383 106.219 35.067 106.369 31.6958 106.429C31.9366 102.768 32.4182 99.1066 33.1707 95.4753C33.7125 92.8044 34.4048 90.1634 35.2176 87.5825L35.2477 87.4625C36.843 87.9726 38.5286 88.3928 40.2142 88.8129Z"
    fill="#EF7334" />
  <path
    d="M33.0201 95.4152L33.1405 95.4453C32.388 99.0465 31.9064 102.708 31.6656 106.399C27.2408 106.459 22.816 106.279 18.4214 105.859C18.4214 105.859 18.4214 91.784 18.5418 84.7615C20.9197 84.4014 23.3278 84.3113 25.7057 84.5214C25.5251 86.5321 25.7659 88.6028 26.5786 90.4335C27.4214 92.2941 28.8662 93.8847 30.7024 94.695C31.4549 95.0251 32.2375 95.2052 33.0201 95.4152Z"
    fill="#EF7334" />
  <path
    d="M30.7327 35.7542C30.8832 35.6942 31.0638 35.6342 31.2143 35.5741C31.2143 35.5741 31.2444 35.5741 31.2444 35.5441C35.3982 33.8935 38.4384 30.3223 42.2912 27.8014C45.6926 30.2322 47.3481 34.3137 48.4919 38.3351C49.9367 43.4669 50.2377 48.9288 49.3949 54.1807C49.0939 56.0714 48.6424 57.932 48.2511 59.7927C46.8966 65.9148 45.9334 72.1571 45.3615 78.3993C45.0304 82.0605 44.91 86.052 47.1073 88.993C46.4752 89.2331 45.8431 89.3831 45.1809 89.4431C43.5254 89.5932 41.8096 89.2031 40.2143 88.7829C38.5588 88.3628 36.8732 87.9426 35.2477 87.4024C34.7059 87.2224 34.1641 87.0123 33.6223 86.8022C32.5086 86.322 31.425 85.7819 30.2511 85.3917C28.9869 84.9416 27.6624 84.7015 26.338 84.5514C26.1273 84.5214 25.9166 84.5214 25.7059 84.4914C23.328 84.2813 20.92 84.3414 18.542 84.7315C17.6089 84.8815 16.6457 85.0616 15.7427 85.3317C16.134 82.9609 16.3748 80.8601 16.6156 78.7594C16.9768 75.6983 17.338 72.6372 17.3681 69.5461C17.4283 66.395 17.1273 63.2139 17.4584 60.0628C17.9701 54.8109 20.1373 49.8292 22.7561 45.2375C24.7728 41.6663 27.1808 38.1851 30.4919 35.7242L30.6725 35.6342C30.7026 35.6942 30.7026 35.7242 30.7327 35.7542Z"
    fill="#921212" />
  <path
    d="M35.1873 87.5525C34.3746 90.1634 33.6823 92.7743 33.1405 95.4453C32.3879 99.0465 31.9063 102.708 31.6655 106.399C31.6655 106.429 31.6655 106.429 31.6655 106.459"
    stroke="#282828" stroke-miterlimit="10" stroke-linecap="round" stroke-linejoin="round" />
  <path
    d="M25.7056 84.4614V84.4914C25.525 86.5021 25.7658 88.5728 26.5785 90.4035C27.4213 92.2641 28.8661 93.8547 30.7022 94.665C31.4548 94.9951 32.2374 95.2052 33.02 95.3852"
    stroke="#282828" stroke-miterlimit="10" stroke-linecap="round" stroke-linejoin="round" />
  <path
    d="M37.0237 40.4359C35.5488 44.7874 34.5856 49.289 33.6525 53.7606C33.2311 55.7713 32.8097 57.812 32.6291 59.8827C32.599 60.4529 32.5689 61.0231 32.7194 61.5333C32.8699 62.0435 33.1408 62.4936 33.4719 62.9138C34.5856 64.5043 35.9401 65.9148 37.4752 67.1453"
    stroke="#282828" stroke-miterlimit="10" stroke-linecap="round" stroke-linejoin="round" />
  <path
    d="M1.38462 41.7563C3.49165 44.5173 5.71907 47.1882 8.06691 49.7391L8.0368 49.7991C6.86289 49.349 5.68898 48.9288 4.51506 48.5087L4.54516 48.4486C3.01004 46.708 1.47492 44.9374 0 43.1668C0.0602008 42.8367 0.301002 42.5666 0.571906 42.3565C0.812709 42.1764 1.11372 41.9964 1.38462 41.7563Z"
    fill="#921212" />
  <path
    d="M22.6957 58.9824C22.0335 59.3425 21.7927 60.1228 21.6723 60.8431C21.3412 62.8238 21.6422 64.9245 21.0402 66.8452C18.8128 65.4347 16.8262 63.664 14.8696 61.8934C14.2074 61.2932 13.5452 60.663 12.7626 60.2428C11.7994 59.7327 10.7158 59.5526 9.69236 59.1625C8.96995 58.8924 8.27765 58.5322 7.61544 58.1421C7.01343 57.782 6.41143 57.4218 6.02012 56.8516C5.59872 56.3115 5.44822 55.5312 5.74922 54.901L5.80941 54.8109C5.77931 54.7809 5.74922 54.7809 5.71912 54.7509C5.17731 54.3908 4.6656 54.0006 4.3646 53.4304C4.0636 52.8602 4.06359 52.11 4.485 51.6598L4.5151 51.5998C4.2141 51.4497 3.9432 51.2997 3.64219 51.1496C3.07028 50.8495 2.46827 50.5194 2.10707 49.9492C1.77596 49.379 1.83617 48.5387 2.40807 48.2386C2.82948 48.0285 3.37128 48.1786 3.82279 48.3286C4.03349 48.4187 4.2442 48.4787 4.485 48.5687C5.65891 48.9889 6.83283 49.409 8.00675 49.8592C9.06026 50.2493 10.0837 50.6395 11.1071 51.0296C10.3245 50.3093 9.54187 49.6191 8.75926 48.9589C8.54856 48.7788 8.36795 48.6287 8.24755 48.3887C8.12715 48.1486 8.12715 47.8485 8.30775 47.6684C8.45826 47.5184 8.66896 47.4883 8.87966 47.4883C9.60207 47.4883 10.2643 47.8785 10.8663 48.2386C11.98 48.9289 13.0636 49.7091 14.1472 50.4594C14.388 50.6094 14.6288 50.7895 14.8094 50.9996C15.0502 51.2997 15.1706 51.6598 15.3211 52.0199C15.7726 53.2504 16.2242 54.5708 17.1874 55.4411C17.5486 55.7713 18.0001 56.0414 18.4215 56.3115C19.8362 57.0917 21.281 58.1421 22.6957 58.9824Z"
    fill="#F2E7D5" />
  <path
    d="M27.7828 16.8175C28.445 16.7875 29.1373 16.7875 29.8597 16.7575C30.0102 15.497 30.1908 14.1466 31.0938 13.2462C31.4249 12.9161 31.8764 12.646 32.3279 12.7361C32.7192 12.7961 33.0503 13.0962 33.3212 13.3963C34.5252 14.8668 34.7059 17.0876 33.7125 18.7082C34.7962 19.5485 36.4517 19.1883 37.4149 18.228C38.3781 17.2677 38.7694 15.8872 38.9801 14.5367C39.4316 11.4756 39.0403 8.23447 37.4751 5.56353C37.1741 5.02334 36.8129 4.51316 36.3012 4.15303C35.3079 3.43278 33.9533 3.4928 32.6289 3.64285C31.5453 2.50245 30.4617 1.36205 29.0169 0.731824C27.9032 0.251654 26.6691 0.131612 25.465 0.0715912C24.3814 -0.0184406 23.2978 -0.0484515 22.2142 0.131612C21.3413 0.281665 20.4985 0.581771 19.7159 0.941898C18.2108 1.60213 16.7359 2.38241 15.5319 3.52281C14.3279 4.66321 13.455 6.16374 13.2744 7.78431C13.0938 9.37488 13.8463 11.2355 15.4115 11.6857C16.465 11.9858 17.5787 11.5957 18.5419 11.1155C19.5052 10.6353 20.4985 10.0351 21.5821 9.94508C22.6356 9.85504 23.6891 10.2752 24.6222 10.7554C24.9834 10.9354 25.3747 11.1455 25.6155 11.4756C25.8563 11.7757 25.9767 12.1358 26.1272 12.466C26.6389 13.9365 27.1507 15.437 27.7828 16.8175Z"
    fill="#A06409" />
  <path d="M21.9731 26.5409C22.9063 26.0608 25.5551 24.9204 25.8561 22.0093" stroke="#404040" stroke-miterlimit="10"
    stroke-linecap="round" stroke-linejoin="round" />
  <path
    d="M28.2642 37.8549C30.913 38.095 33.5919 37.1647 35.8495 35.7842C38.107 34.3737 40.0635 32.513 41.9598 30.6524C42.5017 30.1122 43.0736 29.572 43.495 28.9117"
    stroke="#282828" stroke-miterlimit="10" stroke-linecap="round" stroke-linejoin="round" />
  <path d="M3.64209 51.0896C3.94309 51.2397 4.214 51.3897 4.515 51.5398C5.50831 52.0499 6.50162 52.5901 7.49494 53.1003"
    stroke="#404040" stroke-miterlimit="10" stroke-linecap="round" stroke-linejoin="round" />
  <path
    d="M4.48485 51.6298C4.06344 52.1099 4.06345 52.8602 4.36445 53.4004C4.66545 53.9706 5.17716 54.3907 5.71897 54.7209C5.74907 54.7509 5.77916 54.7509 5.80926 54.7809C6.35107 55.141 6.95309 55.4711 7.55509 55.7412"
    stroke="#404040" stroke-miterlimit="10" stroke-linecap="round" stroke-linejoin="round" />
  <path
    d="M47.0772 66.0649C46.2344 68.0456 45.3916 70.0263 44.0973 71.7069C42.803 73.4175 40.9969 74.828 38.8899 75.2181C36.512 75.6683 34.0738 74.828 31.8765 73.8076C27.9032 71.977 24.2009 69.6062 21.0103 66.8152C21.6123 64.8945 21.3113 62.7937 21.6424 60.813C21.7628 60.0928 22.0036 59.3125 22.6658 58.9524C26.037 60.1828 29.4685 61.2632 32.93 62.2536"
    stroke="#282828" stroke-miterlimit="10" stroke-linecap="round" stroke-linejoin="round" />
</svg>