<svg width="112" height="25" viewBox="0 0 112 25" fill="none" xmlns="http://www.w3.org/2000/svg">
  <path
    d="M24.4746 9.854C22.0883 9.854 20.1753 11.7854 20.1753 14.1504V14.1701V22.6249H21.8516V17.5599C22.5814 18.1117 23.4886 18.4467 24.4746 18.4467C26.861 18.4467 28.774 16.5153 28.774 14.1504C28.774 11.7854 26.8413 9.854 24.4746 9.854ZM25.9341 16.3183C24.731 17.1263 23.1138 16.811 22.3052 15.6088C21.4967 14.4066 21.8122 12.7905 23.0152 11.9825C24.2183 11.1744 25.8354 11.4898 26.644 12.692C27.4526 13.8942 27.1371 15.5102 25.9341 16.3183Z"
    fill="white" />
  <path d="M19.3668 5.67578H17.6904V18.486H19.3668V5.67578Z" fill="white" />
  <path
    d="M16.823 13.3226C16.4286 11.3321 14.6931 9.854 12.6026 9.854C10.2162 9.854 8.30322 11.7854 8.30322 14.1504C8.30322 16.535 10.236 18.4467 12.6026 18.4467C13.7859 18.4467 14.8509 17.9737 15.6397 17.2051L14.4564 16.0226C14.3381 16.1409 14.2198 16.2394 14.0817 16.338C12.8787 17.146 11.2615 16.8307 10.4529 15.6285C9.6443 14.4263 9.95985 12.8102 11.1629 12.0022C12.3659 11.1942 13.9831 11.5095 14.7917 12.7117C14.9297 12.9088 15.0283 13.1255 15.1072 13.3423H10.6304V15.0175H16.9019V14.1898C16.9019 13.8745 16.8625 13.5788 16.823 13.3226Z"
    fill="white" />
  <path d="M0.315548 11.6276H0V13.3028H0.315548V18.4466H1.9919V5.67578H0.315548V11.6276Z" fill="white" />
  <path
    d="M7.71119 13.3028H7.39565V5.67578H5.71929V13.3028H5.40375L2.66242 11.6276H2.32715V13.3028H2.62298L5.40375 14.9977H5.71929V18.4466H7.39565V14.9977H7.71119V13.3028Z"
    fill="white" />
  <path d="M33.1128 13.2634H29.7798V14.9977H33.1128V13.2634Z" fill="white" />
  <path
    d="M112 9.89349C112 7.56794 110.107 5.67596 107.779 5.67596V5.65625H101.528V5.67596H101.192V18.4468H102.869V14.111H107.779C110.107 14.111 112 12.219 112 9.89349ZM109.909 11.3322C109.416 12.0614 108.608 12.4555 107.779 12.4555V12.4358H102.869V7.31173H107.76C108.253 7.31173 108.766 7.44969 109.199 7.74531C110.383 8.55334 110.698 10.1497 109.909 11.3322Z"
    fill="white" />
  <path
    d="M71.7083 0C65.989 0.571535 61.453 5.1044 60.8613 10.8197H65.6537C65.989 8.90806 67.054 7.11462 68.8092 5.95184C69.7164 5.34089 70.7025 4.96644 71.7083 4.78907V0ZM65.3776 4.49345C65.1607 4.72994 64.6479 5.1044 64.431 5.1241C64.2337 5.14381 64.0168 4.80877 64.0365 4.67082C64.076 4.47374 64.569 4.23724 64.8648 3.96133C65.2001 3.646 65.3184 3.23213 65.4565 3.173C65.5354 3.13359 65.989 3.23213 65.9495 3.52775C65.9495 3.86279 65.5748 4.25695 65.3776 4.49345Z"
    fill="white" />
  <path
    d="M71.7083 19.3533C70.7025 19.1759 69.7164 18.8015 68.8092 18.1905C67.054 17.008 65.9693 15.2146 65.6537 13.2832H60.8613C61.4333 18.9986 65.989 23.5511 71.7083 24.1424V19.3533ZM65.4762 20.9891C65.3184 20.9102 65.2198 20.4964 64.8846 20.2007C64.569 19.9051 64.076 19.6883 64.0563 19.4913C64.0365 19.3533 64.2337 19.0183 64.4507 19.038C64.6479 19.0577 65.1804 19.4321 65.3973 19.6686C65.6143 19.9051 65.9693 20.2993 66.0087 20.654C66.0087 20.9299 65.5551 21.0285 65.4762 20.9891Z"
    fill="white" />
  <path
    d="M80.2479 13.2832C79.9324 15.2146 78.8477 17.008 77.0925 18.1905C76.1853 18.8015 75.1992 19.1759 74.1934 19.3533V24.1424C79.9127 23.5708 84.4684 19.0183 85.0403 13.3029L80.2479 13.2832ZM81.0171 20.2007C80.6818 20.5161 80.5635 20.9299 80.4254 20.9891C80.3466 21.0285 79.893 20.9299 79.9324 20.6343C79.9521 20.2796 80.3268 19.8657 80.5438 19.6489C80.7607 19.4124 81.2735 19.038 81.4904 19.0183C81.6876 18.9986 81.9046 19.3336 81.8849 19.4715C81.8257 19.6883 81.3326 19.9051 81.0171 20.2007Z"
    fill="white" />
  <path
    d="M74.1934 0V4.78907C75.1992 4.96644 76.1853 5.34089 77.0925 5.95184C78.828 7.11462 79.9127 8.90806 80.2479 10.8197H85.0403C84.4487 5.1044 79.9127 0.591243 74.1934 0ZM81.4707 5.1241C81.2735 5.1044 80.741 4.72994 80.5241 4.49345C80.3071 4.25695 79.9521 3.86279 79.9127 3.50804C79.893 3.23213 80.3268 3.11388 80.4057 3.1533C80.5635 3.23213 80.6621 3.646 80.9974 3.94162C81.3129 4.23724 81.806 4.45403 81.8257 4.65111C81.8849 4.80877 81.6679 5.14381 81.4707 5.1241Z"
    fill="white" />
  <path
    d="M55.1222 14.111C57.4494 14.0913 59.323 12.219 59.323 9.89349C59.323 7.56794 57.4494 5.67596 55.1222 5.67596V5.65625H48.8704V5.67596H48.5352V18.4468H50.2115V14.111H52.6373L56.9564 18.4271H59.3427L55.0236 14.111H55.1222ZM50.2115 7.31173H55.1025C55.5956 7.31173 56.1083 7.44969 56.5422 7.74531C57.7255 8.53363 58.0213 10.13 57.2325 11.3125C56.7394 12.0417 55.9308 12.4358 55.1222 12.4358V12.4161H50.2115V7.31173Z"
    fill="white" />
  <path
    d="M97.8991 5.67578V12.0809H97.9188C97.9188 14.6824 95.7888 16.8109 93.1856 16.8109C90.5626 16.8109 88.4523 14.7021 88.4523 12.0809H88.4721V5.67578H86.8154V12.0809C86.8154 15.6087 89.6751 18.4466 93.2053 18.4466C96.7355 18.4466 99.5754 15.589 99.5951 12.0809V5.67578H97.8991Z"
    fill="white" />
  <path
    d="M45.222 12.4554C45.0248 14.8795 42.9935 16.7912 40.5085 16.7912C37.8855 16.7912 35.7753 14.6627 35.7753 12.0613C35.7753 9.44009 37.9052 7.33133 40.5085 7.33133C41.8101 7.33133 43.0132 7.86345 43.8612 8.7306L45.0248 7.56783C43.8612 6.40505 42.2835 5.69556 40.5085 5.69556C36.9783 5.69556 34.1187 8.55323 34.1187 12.081C34.1187 15.6087 36.9783 18.4664 40.5085 18.4664C42.3821 18.4664 44.0781 17.6584 45.2417 16.3576V18.427H46.8786V12.4554H45.222Z"
    fill="white" />
</svg>