<svg width="115" height="34" viewBox="0 0 115 34" fill="none" xmlns="http://www.w3.org/2000/svg">
  <path
    d="M47.3991 9.08398C42.7776 9.08398 39.0728 12.8244 39.0728 17.4046V17.4428V33.8168H42.3193V24.0076C43.7325 25.0764 45.4894 25.7252 47.3991 25.7252C52.0207 25.7252 55.7255 21.9847 55.7255 17.4046C55.7255 12.8244 51.9825 9.08398 47.3991 9.08398ZM50.2255 21.6031C47.8957 23.168 44.7637 22.5573 43.1978 20.229C41.6318 17.9008 42.2429 14.771 44.5728 13.2061C46.9026 11.6412 50.0346 12.2519 51.6005 14.5802C53.1665 16.9084 52.5554 20.0382 50.2255 21.6031Z"
    fill="#FF0000" />
  <path d="M37.5068 0.992188H34.2603V25.8013H37.5068V0.992188Z" fill="#FF0000" />
  <path
    d="M32.5801 15.8015C31.8162 11.9466 28.4551 9.08398 24.4065 9.08398C19.7849 9.08398 16.0801 12.8244 16.0801 17.4046C16.0801 22.0229 19.8231 25.7252 24.4065 25.7252C26.6981 25.7252 28.7606 24.8092 30.2884 23.3206L27.9967 21.0306C27.7676 21.2596 27.5384 21.4504 27.2711 21.6412C24.9412 23.2061 21.8092 22.5954 20.2433 20.2672C18.6773 17.9389 19.2884 14.8092 21.6183 13.2443C23.9481 11.6794 27.0801 12.2901 28.646 14.6183C28.9134 15 29.1044 15.4199 29.2572 15.8397H20.587V19.084H32.7329V17.4809C32.7329 16.8702 32.6565 16.2977 32.5801 15.8015Z"
    fill="#FF0000" />
  <path d="M0.611111 12.5189H0V15.7632H0.611111V25.725H3.85764V0.992188H0.611111V12.5189Z" fill="#FF0000" />
  <path
    d="M14.9339 15.7632H14.3228V0.992188H11.0763V15.7632H10.4652L5.15614 12.5189H4.50684V15.7632H5.07975L10.4652 19.0456H11.0763V25.725H14.3228V19.0456H14.9339V15.7632Z"
    fill="#FF0000" />
  <path d="M64.1287 15.687H57.6738V19.0458H64.1287V15.687Z" fill="#FF0000" />
  <path
    d="M106.754 17.3281C111.26 17.29 114.889 13.664 114.889 9.16021C114.889 4.65639 111.26 0.992269 106.754 0.992269V0.954102H94.6459V0.992269H93.9966V25.7251H97.2431V17.3281H101.941L110.306 25.6869H114.927L106.563 17.3281H106.754ZM97.2431 4.16021H106.715C107.67 4.16021 108.663 4.42738 109.504 4.9999C111.795 6.52662 112.368 9.61822 110.84 11.9083C109.885 13.3205 108.32 14.0839 106.754 14.0839V14.0457H97.2431V4.16021Z"
    fill="white" />
  <path
    d="M87.5796 14.1221C87.1977 18.8168 83.2637 22.5191 78.4512 22.5191C73.3713 22.5191 69.2845 18.3969 69.2845 13.3588C69.2845 8.28242 73.4095 4.19846 78.4512 4.19846C80.972 4.19846 83.3019 5.22899 84.9442 6.90838L87.1977 4.65647C84.9442 2.40456 81.8887 1.03052 78.4512 1.03052C71.6144 1.03052 66.0762 6.56487 66.0762 13.3969C66.0762 20.229 71.6144 25.7633 78.4512 25.7633C82.0796 25.7633 85.3644 24.1985 87.6178 21.6794V25.687H90.788V14.1221H87.5796Z"
    fill="white" />
</svg>