<svg width="48" height="47" viewBox="0 0 48 47" fill="none" xmlns="http://www.w3.org/2000/svg">
  <path
    d="M21.8751 0C10.7987 1.10687 2.014 9.8855 0.868164 20.9542H10.1494C10.7987 17.2519 12.8612 13.7786 16.2605 11.5267C18.0175 10.3435 19.9272 9.61832 21.8751 9.27481V0ZM9.61469 8.70229C9.19455 9.16031 8.20149 9.8855 7.78135 9.92366C7.39941 9.96183 6.97927 9.31298 7.01746 9.0458C7.09385 8.66412 8.04872 8.20611 8.62163 7.67176C9.27094 7.06107 9.5001 6.25954 9.76747 6.14504C9.92024 6.0687 10.7987 6.25954 10.7223 6.83206C10.7223 7.48092 9.99663 8.24427 9.61469 8.70229Z"
    fill="#FF0000" />
  <path
    d="M21.8751 37.4808C19.9272 37.1373 18.0175 36.4121 16.2605 35.2289C12.8612 32.9388 10.7605 29.4656 10.1494 25.7251H0.868164C1.9758 36.7938 10.7987 45.6106 21.8751 46.7556V37.4808ZM9.80566 40.6488C9.50011 40.4961 9.30913 39.6946 8.65983 39.122C8.04872 38.5495 7.09385 38.1297 7.05566 37.748C7.01746 37.4808 7.39941 36.832 7.81955 36.8701C8.20149 36.9083 9.23275 37.6335 9.65289 38.0915C10.073 38.5495 10.7605 39.3129 10.8369 39.9999C10.8369 40.5343 9.95844 40.7251 9.80566 40.6488Z"
    fill="#FF0000" />
  <path
    d="M38.4132 25.7251C37.8021 29.4656 35.7014 32.9388 32.3021 35.2289C30.5451 36.4121 28.6354 37.1373 26.6875 37.4808V46.7556C37.7639 45.6488 46.5868 36.832 47.6944 25.7633L38.4132 25.7251ZM39.9028 39.122C39.2535 39.7327 39.0243 40.5343 38.7569 40.6488C38.6042 40.7251 37.7257 40.5343 37.8021 39.9617C37.8403 39.2747 38.566 38.4732 38.9861 38.0533C39.4063 37.5953 40.3993 36.8701 40.8194 36.832C41.2014 36.7938 41.6215 37.4427 41.5833 37.7098C41.4688 38.1297 40.5139 38.5495 39.9028 39.122Z"
    fill="#FF0000" />
  <path
    d="M26.6875 0V9.27481C28.6354 9.61832 30.5451 10.3435 32.3021 11.5267C35.6632 13.7786 37.7639 17.2519 38.4132 20.9542H47.6944C46.5486 9.8855 37.7639 1.14504 26.6875 0ZM40.7813 9.92366C40.3993 9.8855 39.3681 9.16031 38.9479 8.70229C38.5278 8.24427 37.8403 7.48092 37.7639 6.79389C37.7257 6.25954 38.566 6.03053 38.7188 6.10687C39.0243 6.25954 39.2153 7.06107 39.8646 7.63359C40.4757 8.20611 41.4306 8.62595 41.4688 9.00763C41.5833 9.31298 41.1632 9.96183 40.7813 9.92366Z"
    fill="#FF0000" />
</svg>