<svg width="313" height="362" viewBox="0 0 313 362" fill="none" xmlns="http://www.w3.org/2000/svg">
  <g opacity="0.03">
    <mask id="mask0_621_86" style="mask-type:alpha" maskUnits="userSpaceOnUse" x="0" y="0" width="363" height="362">
      <path
        d="M163.155 2.86157C78.7099 11.3003 11.7358 78.2279 3 162.615H73.7596C78.7098 134.389 94.4342 107.909 120.35 90.7404C133.745 81.7198 148.305 76.191 163.155 73.5721V2.86157ZM69.6829 69.2072C66.4798 72.6991 58.9087 78.2279 55.7056 78.5189C52.7937 78.8099 49.5906 73.863 49.8818 71.8261C50.4642 68.9162 57.744 65.4243 62.1119 61.3505C67.0621 56.6947 68.8093 50.5839 70.8476 49.7109C72.0124 49.1289 78.7098 50.5839 78.1274 54.9487C78.1274 59.8955 72.5948 65.7153 69.6829 69.2072Z"
        stroke="white" stroke-width="4" />
      <path
        d="M163.155 288.614C148.305 285.995 133.745 280.466 120.35 271.445C94.4342 253.986 78.4186 227.506 73.7596 198.989H3C11.4446 283.376 78.7099 350.595 163.155 359.324V288.614ZM71.1389 312.766C68.8093 311.602 67.3534 305.491 62.4031 301.126C57.744 296.762 50.4642 293.561 50.173 290.651C49.8818 288.614 52.7937 283.667 55.9968 283.958C58.9088 284.249 66.771 289.778 69.9741 293.27C73.1772 296.762 78.4186 302.581 79.001 307.819C79.001 311.893 72.3036 313.348 71.1389 312.766Z"
        stroke="white" stroke-width="4" />
      <path
        d="M289.24 198.989C284.581 227.506 268.566 253.986 242.649 271.445C229.255 280.466 214.695 285.995 199.844 288.614V359.324C284.29 350.886 351.555 283.667 360 199.28L289.24 198.989ZM300.597 301.126C295.646 305.782 293.899 311.893 291.861 312.766C290.696 313.348 283.999 311.893 284.581 307.528C284.872 302.29 290.405 296.18 293.608 292.979C296.811 289.487 304.382 283.958 307.585 283.667C310.497 283.376 313.7 288.323 313.409 290.36C312.535 293.561 305.256 296.762 300.597 301.126Z"
        stroke="white" stroke-width="4" />
      <path
        d="M199.844 2.86157V73.5721C214.695 76.191 229.255 81.7198 242.649 90.7404C268.274 107.909 284.29 134.389 289.24 162.615H360C351.264 78.2279 284.29 11.5913 199.844 2.86157ZM307.294 78.5189C304.382 78.2279 296.52 72.6991 293.317 69.2072C290.114 65.7153 284.872 59.8955 284.29 54.6577C283.999 50.5839 290.405 48.8379 291.57 49.4199C293.899 50.5839 295.355 56.6947 300.305 61.0595C304.964 65.4243 312.244 68.6252 312.535 71.5351C313.409 73.863 310.206 78.8099 307.294 78.5189Z"
        stroke="white" stroke-width="4" />
    </mask>
    <g mask="url(#mask0_621_86)">
      <rect x="-161.489" y="-79.6106" width="2292.78" height="646.209" fill="#D9D9D9" />
    </g>
  </g>
</svg>