<svg width="453" height="452" viewBox="0 0 453 452" fill="none" xmlns="http://www.w3.org/2000/svg">
  <g opacity="0.04">
    <path
      d="M203.428 2C97.2205 12.6134 12.987 96.7885 2 202.922H90.9945C97.2205 167.422 116.997 134.118 149.592 112.526C166.438 101.18 184.75 94.2266 203.428 90.9328V2ZM85.8673 85.4431C81.8387 89.8349 72.3166 96.7885 68.288 97.1544C64.6257 97.5204 60.5972 91.2988 60.9634 88.7369C61.6959 85.0771 70.8517 80.6854 76.3452 75.5617C82.5712 69.706 84.7686 62.0205 87.3322 60.9226C88.7971 60.1906 97.2205 62.0205 96.488 67.5102C96.488 73.7318 89.5296 81.0514 85.8673 85.4431Z"
      stroke="#111B26" stroke-width="2" />
    <path
      d="M203.428 361.391C184.75 358.098 166.438 351.144 149.592 339.799C116.997 317.84 96.8543 284.536 90.9945 248.67H2C12.6208 354.804 97.2205 439.345 203.428 450.324V361.391ZM87.6985 391.768C84.7686 390.304 82.9374 382.618 76.7115 377.129C70.8517 371.639 61.6959 367.613 61.3296 363.953C60.9634 361.391 64.6257 355.17 68.6543 355.536C72.3166 355.902 82.205 362.855 86.2335 367.247C90.2621 371.639 96.8542 378.958 97.5867 385.546C97.5867 390.67 89.1634 392.5 87.6985 391.768Z"
      stroke="#111B26" stroke-width="2" />
    <path
      d="M362.005 248.67C356.146 284.536 336.003 317.84 303.408 339.799C286.561 351.144 268.25 358.098 249.572 361.391V450.324C355.779 439.711 440.379 355.17 451 249.036L362.005 248.67ZM376.288 377.129C370.062 382.984 367.865 390.67 365.301 391.768C363.836 392.5 355.413 390.67 356.146 385.18C356.512 378.592 363.47 370.907 367.499 366.881C371.527 362.489 381.049 355.536 385.078 355.17C388.74 354.804 392.769 361.025 392.403 363.587C391.304 367.613 382.148 371.639 376.288 377.129Z"
      stroke="#111B26" stroke-width="2" />
    <path
      d="M249.572 2V90.9328C268.25 94.2266 286.561 101.18 303.408 112.526C335.637 134.118 355.779 167.422 362.005 202.922H451C440.013 96.7885 355.779 12.9794 249.572 2ZM384.712 97.1544C381.049 96.7885 371.161 89.8349 367.133 85.4431C363.104 81.0514 356.512 73.7318 355.779 67.1442C355.413 62.0205 363.47 59.8246 364.935 60.5566C367.865 62.0205 369.696 69.706 375.922 75.1957C381.782 80.6854 390.938 84.7112 391.304 88.371C392.403 91.2988 388.374 97.5204 384.712 97.1544Z"
      stroke="#111B26" stroke-width="2" />
  </g>
</svg>