<svg width="217" height="47" viewBox="0 0 217 47" fill="none" xmlns="http://www.w3.org/2000/svg">
  <path
    d="M47.3991 19.084C42.7776 19.084 39.0728 22.8244 39.0728 27.4046V27.4428V43.8168H42.3193V34.0076C43.7325 35.0764 45.4894 35.7252 47.3991 35.7252C52.0207 35.7252 55.7255 31.9847 55.7255 27.4046C55.7255 22.8244 51.9825 19.084 47.3991 19.084ZM50.2255 31.6031C47.8957 33.168 44.7637 32.5573 43.1978 30.229C41.6318 27.9008 42.2429 24.771 44.5728 23.2061C46.9026 21.6412 50.0346 22.2519 51.6005 24.5802C53.1665 26.9084 52.5554 30.0382 50.2255 31.6031Z"
    fill="#FF0000" />
  <path d="M37.5068 10.9922H34.2603V35.8013H37.5068V10.9922Z" fill="#FF0000" />
  <path
    d="M32.5801 25.8015C31.8162 21.9466 28.4551 19.084 24.4065 19.084C19.7849 19.084 16.0801 22.8244 16.0801 27.4046C16.0801 32.0229 19.8231 35.7252 24.4065 35.7252C26.6981 35.7252 28.7606 34.8092 30.2884 33.3206L27.9967 31.0306C27.7676 31.2596 27.5384 31.4504 27.2711 31.6412C24.9412 33.2061 21.8092 32.5954 20.2433 30.2672C18.6773 27.9389 19.2884 24.8092 21.6183 23.2443C23.9481 21.6794 27.0801 22.2901 28.646 24.6183C28.9134 25 29.1044 25.4199 29.2572 25.8397H20.587V29.084H32.7329V27.4809C32.7329 26.8702 32.6565 26.2977 32.5801 25.8015Z"
    fill="#FF0000" />
  <path d="M0.611111 22.5189H0V25.7632H0.611111V35.725H3.85764V10.9922H0.611111V22.5189Z" fill="#FF0000" />
  <path
    d="M14.9339 25.7632H14.3228V10.9922H11.0763V25.7632H10.4652L5.15614 22.5189H4.50684V25.7632H5.07975L10.4652 29.0456H11.0763V35.725H14.3228V29.0456H14.9339V25.7632Z"
    fill="#FF0000" />
  <path d="M64.1287 25.687H57.6738V29.0458H64.1287V25.687Z" fill="#FF0000" />
  <path
    d="M216.906 19.1602C216.906 14.6564 213.239 10.9923 208.733 10.9923V10.9541H196.625V10.9923H195.976V35.7251H199.222V27.3281H208.733C213.239 27.3281 216.906 23.664 216.906 19.1602ZM212.858 21.9465C211.903 23.3587 210.337 24.122 208.733 24.122V24.0839H199.222V14.1602H208.694C209.649 14.1602 210.642 14.4274 211.483 14.9999C213.774 16.5648 214.385 19.6564 212.858 21.9465Z"
    fill="white" />
  <path
    d="M138.875 0C127.799 1.10687 119.014 9.8855 117.868 20.9542H127.149C127.799 17.2519 129.861 13.7786 133.261 11.5267C135.017 10.3435 136.927 9.61832 138.875 9.27481V0ZM126.615 8.70229C126.195 9.16031 125.201 9.8855 124.781 9.92366C124.399 9.96183 123.979 9.31298 124.017 9.0458C124.094 8.66412 125.049 8.20611 125.622 7.67176C126.271 7.06107 126.5 6.25954 126.767 6.14504C126.92 6.0687 127.799 6.25954 127.722 6.83206C127.722 7.48092 126.997 8.24427 126.615 8.70229Z"
    fill="#FF0000" />
  <path
    d="M138.875 37.4808C136.927 37.1373 135.017 36.4121 133.261 35.2289C129.861 32.9388 127.761 29.4656 127.149 25.7251H117.868C118.976 36.7938 127.799 45.6106 138.875 46.7556V37.4808ZM126.806 40.6488C126.5 40.4961 126.309 39.6946 125.66 39.122C125.049 38.5495 124.094 38.1297 124.056 37.748C124.017 37.4808 124.399 36.832 124.82 36.8701C125.201 36.9083 126.233 37.6335 126.653 38.0915C127.073 38.5495 127.761 39.3129 127.837 39.9999C127.837 40.5343 126.958 40.7251 126.806 40.6488Z"
    fill="#FF0000" />
  <path
    d="M155.413 25.7251C154.802 29.4656 152.701 32.9388 149.302 35.2289C147.545 36.4121 145.635 37.1373 143.688 37.4808V46.7556C154.764 45.6488 163.587 36.832 164.694 25.7633L155.413 25.7251ZM156.903 39.122C156.253 39.7327 156.024 40.5343 155.757 40.6488C155.604 40.7251 154.726 40.5343 154.802 39.9617C154.84 39.2747 155.566 38.4732 155.986 38.0533C156.406 37.5953 157.399 36.8701 157.819 36.832C158.201 36.7938 158.622 37.4427 158.583 37.7098C158.469 38.1297 157.514 38.5495 156.903 39.122Z"
    fill="#FF0000" />
  <path
    d="M143.688 0V9.27481C145.635 9.61832 147.545 10.3435 149.302 11.5267C152.663 13.7786 154.764 17.2519 155.413 20.9542H164.694C163.549 9.8855 154.764 1.14504 143.688 0ZM157.781 9.92366C157.399 9.8855 156.368 9.16031 155.948 8.70229C155.528 8.24427 154.84 7.48092 154.764 6.79389C154.726 6.25954 155.566 6.03053 155.719 6.10687C156.024 6.25954 156.215 7.06107 156.865 7.63359C157.476 8.20611 158.431 8.62595 158.469 9.00763C158.583 9.31298 158.163 9.96183 157.781 9.92366Z"
    fill="#FF0000" />
  <path
    d="M106.754 27.3281C111.26 27.29 114.889 23.664 114.889 19.1602C114.889 14.6564 111.26 10.9923 106.754 10.9923V10.9541H94.6459V10.9923H93.9966V35.7251H97.2431V27.3281H101.941L110.306 35.6869H114.927L106.563 27.3281H106.754ZM97.2431 14.1602H106.715C107.67 14.1602 108.663 14.4274 109.504 14.9999C111.795 16.5266 112.368 19.6182 110.84 21.9083C109.885 23.3205 108.32 24.0839 106.754 24.0839V24.0457H97.2431V14.1602Z"
    fill="white" />
  <path
    d="M189.597 10.9922V23.3968H189.635C189.635 28.4349 185.51 32.5571 180.469 32.5571C175.389 32.5571 171.302 28.4731 171.302 23.3968H171.34V10.9922H168.132V23.3968C168.132 30.2288 173.67 35.725 180.507 35.725C187.344 35.725 192.844 30.1907 192.882 23.3968V10.9922H189.597Z"
    fill="white" />
  <path
    d="M87.5796 24.1221C87.1977 28.8168 83.2637 32.5191 78.4512 32.5191C73.3713 32.5191 69.2845 28.3969 69.2845 23.3588C69.2845 18.2824 73.4095 14.1985 78.4512 14.1985C80.972 14.1985 83.3019 15.229 84.9442 16.9084L87.1977 14.6565C84.9442 12.4046 81.8887 11.0305 78.4512 11.0305C71.6144 11.0305 66.0762 16.5649 66.0762 23.3969C66.0762 30.229 71.6144 35.7633 78.4512 35.7633C82.0796 35.7633 85.3644 34.1985 87.6178 31.6794V35.687H90.788V24.1221H87.5796Z"
    fill="white" />
</svg>