<svg width="313" height="334" viewBox="0 0 313 334" fill="none" xmlns="http://www.w3.org/2000/svg">
  <ellipse cx="47.7279" cy="67.3401" rx="3.61904" ry="3.60824" fill="#2B2B2B" />
  <path d="M47.7275 95.7936V138.371" stroke="#2B2B2B" stroke-width="7" stroke-linecap="round" stroke-linejoin="round" />
  <ellipse cx="47.7279" cy="152.598" rx="3.61904" ry="3.60824" fill="#2B2B2B" />
  <ellipse cx="278.167" cy="329.557" rx="3.61904" ry="3.60824" fill="#2B2B2B" />
  <path d="M249.732 329.557H206.924" stroke="#2B2B2B" stroke-width="7" stroke-linecap="round" stroke-linejoin="round" />
  <ellipse cx="192.655" cy="329.557" rx="3.61904" ry="3.60824" fill="#2B2B2B" />
  <path
    d="M277.485 299.711H121.039C114.938 299.711 109.975 294.762 109.975 288.68V11.0515C109.975 4.96902 114.938 0.0205688 121.039 0.0205688H277.485C283.586 0.0205688 288.549 4.96902 288.549 11.0515V288.68C288.549 294.762 283.586 299.711 277.485 299.711Z"
    fill="#2B2B2B" />
  <path
    d="M281.311 11.0515V288.68C281.311 290.742 279.657 292.494 277.485 292.494H121.039C118.971 292.494 117.213 290.742 117.213 288.68V11.0515C117.213 8.98964 118.868 7.23706 121.039 7.23706H277.485C279.657 7.23706 281.311 8.98964 281.311 11.0515Z"
    fill="#EF7334" />
  <path
    d="M199.314 149.402C229.409 149.402 253.806 125.078 253.806 95.072C253.806 65.0665 229.409 40.7422 199.314 40.7422C169.218 40.7422 144.821 65.0665 144.821 95.072C144.821 125.078 169.218 149.402 199.314 149.402Z"
    fill="white" />
  <path opacity="0.14"
    d="M281.311 11.0515V129.505L167.88 292.494H121.039C118.971 292.494 117.213 290.742 117.213 288.68V200.845L252.462 7.23706H277.589C279.657 7.23706 281.311 8.98964 281.311 11.0515Z"
    fill="white" />
  <path
    d="M178.117 101.566V89.1951C178.117 85.5868 173.464 84.0404 171.292 87.0301L159.504 103.731C158.781 104.762 157.643 105.278 156.402 105.278H95.7058C93.6378 105.278 91.9834 106.927 91.9834 108.989V157.958C91.9834 160.02 93.6378 161.669 95.7058 161.669H216.065C218.133 161.669 219.787 160.02 219.787 157.958V108.989C219.787 106.927 218.133 105.278 216.065 105.278H181.839C179.771 105.278 178.117 103.628 178.117 101.566Z"
    fill="#8E231D" />
  <path d="M165.812 117.442H105.942V125.587H165.812V117.442Z" fill="#421B1B" />
  <path d="M209.653 117.442H172.739V125.587H209.653V117.442Z" fill="#EF7334" />
  <path d="M142.236 130.02H105.942V138.164H142.236V130.02Z" fill="white" />
  <path d="M191.248 130.02H149.888V138.164H191.248V130.02Z" fill="#EF7334" />
  <path d="M198.652 138.207H209.612V130.062H198.652V138.207Z" fill="white" />
  <path d="M132.93 142.597H105.942V150.741H132.93V142.597Z" fill="#EF7334" />
  <path d="M178.116 142.597H139.961V150.741H178.116V142.597Z" fill="#421B1B" />
  <path d="M186.013 150.805H209.692V142.661H186.013V150.805Z" fill="#EF7334" />
  <path
    d="M268.076 207.237V194.247C268.076 190.536 263.216 189.092 261.148 192.185L249.981 209.299C249.257 210.33 248.12 210.948 246.879 210.948H188.664C186.596 210.948 184.941 212.598 184.941 214.659V263.628C184.941 265.69 186.596 267.34 188.664 267.34H309.023C311.091 267.34 312.745 265.69 312.745 263.628V214.659C312.745 212.598 311.091 210.948 309.023 210.948H271.798C269.73 211.051 268.076 209.299 268.076 207.237Z"
    fill="#2B2B2B" />
  <path d="M240.863 256.951H300.732V248.807H240.863V256.951Z" fill="#E8AF84" />
  <path d="M196.977 256.951H233.892V248.807H196.977V256.951Z" fill="white" />
  <path d="M264.425 244.306H300.719V236.162H264.425V244.306Z" fill="#421B1B" />
  <path d="M215.459 244.306H256.82V236.162H215.459V244.306Z" fill="#EF7334" />
  <path d="M208 236.206H197.039V244.35H208V236.206Z" fill="#421B1B" />
  <path d="M273.806 231.764H300.794V223.62H273.806V231.764Z" fill="#EF7334" />
  <path d="M228.569 231.764H266.724V223.62H228.569V231.764Z" fill="#F8D4B6" />
  <path d="M220.718 223.628H197.039V231.773H220.718V223.628Z" fill="#EF7334" />
  <path
    d="M75.0957 300.01H16.3285C7.31701 300.01 0 292.715 0 283.73V232.28C0 223.295 7.31701 216 16.3285 216H75.0957C84.1072 216 91.4242 223.295 91.4242 232.28V283.73C91.4242 292.715 84.1072 300.01 75.0957 300.01Z"
    fill="#563030" />
  <path
    d="M58.5361 277.587H32.8881C29.114 277.587 26.0332 274.515 26.0332 270.752V245.104C26.0332 241.341 29.114 238.27 32.8881 238.27H58.5361C62.3102 238.27 65.391 241.341 65.391 245.104V270.829C65.391 274.592 62.3102 277.587 58.5361 277.587Z"
    fill="white" />
  <path
    d="M52.9907 268.141H38.5107C36.8932 268.141 35.5068 266.836 35.5068 265.146V250.71C35.5068 249.097 36.8162 247.715 38.5107 247.715H52.9907C54.6081 247.715 55.9945 249.02 55.9945 250.71V265.146C55.9175 266.836 54.6081 268.141 52.9907 268.141Z"
    fill="#8E231D" />
  <path d="M33.4272 238.346V226.136" stroke="#8E231D" stroke-width="4" stroke-miterlimit="10" />
  <path d="M39.5889 238.346V226.136" stroke="#8E231D" stroke-width="4" stroke-miterlimit="10" />
  <path d="M45.7505 238.346V226.136" stroke="#8E231D" stroke-width="4" stroke-miterlimit="10" />
  <path d="M51.9121 238.346V226.136" stroke="#8E231D" stroke-width="4" stroke-miterlimit="10" />
  <path d="M58.0742 238.346V226.136" stroke="#8E231D" stroke-width="4" stroke-miterlimit="10" />
  <path d="M26.033 270.215H13.7866" stroke="#8E231D" stroke-width="4" stroke-miterlimit="10" />
  <path d="M26.033 264.071H13.7866" stroke="#8E231D" stroke-width="4" stroke-miterlimit="10" />
  <path d="M26.033 257.928H13.7866" stroke="#8E231D" stroke-width="4" stroke-miterlimit="10" />
  <path d="M26.033 251.862H13.7866" stroke="#8E231D" stroke-width="4" stroke-miterlimit="10" />
  <path d="M26.033 245.718H13.7866" stroke="#8E231D" stroke-width="4" stroke-miterlimit="10" />
  <path d="M57.9971 277.587V289.873" stroke="#8E231D" stroke-width="4" stroke-miterlimit="10" />
  <path d="M51.8354 277.587V289.873" stroke="#8E231D" stroke-width="4" stroke-miterlimit="10" />
  <path d="M45.6733 277.587V289.873" stroke="#8E231D" stroke-width="4" stroke-miterlimit="10" />
  <path d="M39.5122 277.587V289.873" stroke="#8E231D" stroke-width="4" stroke-miterlimit="10" />
  <path d="M33.3506 277.587V289.873" stroke="#8E231D" stroke-width="4" stroke-miterlimit="10" />
  <path d="M65.3911 245.718H77.6375" stroke="#8E231D" stroke-width="4" stroke-miterlimit="10" />
  <path d="M65.3911 251.862H77.6375" stroke="#8E231D" stroke-width="4" stroke-miterlimit="10" />
  <path d="M65.3911 258.005H77.6375" stroke="#8E231D" stroke-width="4" stroke-miterlimit="10" />
  <path d="M65.3911 264.148H77.6375" stroke="#8E231D" stroke-width="4" stroke-miterlimit="10" />
  <path d="M65.3911 270.292H77.6375" stroke="#8E231D" stroke-width="4" stroke-miterlimit="10" />
  <path
    d="M292.207 64.9813H229.339C223.032 64.9813 217.965 59.9298 217.965 53.6411V33.3319C217.965 27.0432 223.032 21.9917 229.339 21.9917H292.207C298.514 21.9917 303.581 27.0432 303.581 33.3319V53.6411C303.581 59.9298 298.411 64.9813 292.207 64.9813Z"
    fill="#F8D4B6" />
  <path d="M249.296 53.5381L230.89 45.3937V42.301L249.296 33.1257V38.4865L238.025 43.6412L249.296 48.1772V53.5381Z"
    fill="#2B2B2B" />
  <path d="M268.942 29.8267L259.015 57.0432H252.708L262.634 29.8267H268.942Z" fill="#2B2B2B" />
  <path d="M272.147 48.1772L283.418 43.6412L272.147 38.4865V33.1257L290.552 42.301V45.3937L272.147 53.5381V48.1772Z"
    fill="#2B2B2B" />
</svg>