<svg width="543" height="396" viewBox="0 0 543 396" fill="none" xmlns="http://www.w3.org/2000/svg">
  <path
    d="M388.204 0C336.504 0 290.704 25.4 262.704 64.5C246.504 87.1 218.404 97.7 191.404 91C179.404 88 166.804 86.5 153.804 86.5C69.5039 86.8 0.603861 155.5 0.00386139 239.8C-0.596139 325.6 68.8039 395.3 154.404 395.3C206.304 395.3 252.204 369.7 280.204 330.5C296.304 307.9 324.904 298 351.904 304.5C363.604 307.3 375.704 308.8 388.204 308.8C472.904 308.8 541.704 240.6 542.604 156.1C543.404 70.9 473.304 0 388.204 0Z"
    fill="#DFF1F4" />
  <path
    d="M441.704 306.9C441.704 307 441.704 307.2 441.704 307.3C449.604 309.1 455.504 316.1 455.504 324.5C455.504 332.9 449.604 339.9 441.704 341.7C441.704 341.8 441.704 342 441.704 342.1C441.704 348 436.904 352.8 431.004 352.8C425.104 352.8 420.304 348 420.304 342.1V306.9C420.304 301 425.104 296.2 431.004 296.2C436.904 296.2 441.704 301 441.704 306.9Z"
    fill="#9DC11E" />
  <path
    d="M436.604 292.6C436.604 292.7 436.604 292.8 436.604 292.9C442.604 294.2 447.104 299.6 447.104 306C447.104 312.4 442.604 317.8 436.604 319.1C436.604 319.2 436.604 319.3 436.604 319.4C436.604 323.9 432.904 327.6 428.404 327.6C423.904 327.6 420.204 323.9 420.204 319.4V292.5C420.204 288 423.904 284.3 428.404 284.3C432.904 284.4 436.604 288.1 436.604 292.6Z"
    fill="#709632" />
  <path d="M104.204 253.2C104.204 253.2 83.8039 239.1 93.8039 209.9" stroke="#25576B" stroke-width="0.7304"
    stroke-miterlimit="10" />
  <path
    d="M97.6949 209.772C98.5105 208.02 97.7509 205.938 95.9985 205.122C94.246 204.307 92.1643 205.066 91.3487 206.819C90.5332 208.571 91.2927 210.653 93.0452 211.469C94.7976 212.284 96.8794 211.525 97.6949 209.772Z"
    fill="#EDCB3A" />
  <path d="M102.604 251.7C102.604 251.7 78.1039 248.2 74.0039 217.5" stroke="#25576B" stroke-width="0.7304"
    stroke-miterlimit="10" />
  <path
    d="M74.0062 219.412C75.9386 219.361 77.464 217.753 77.4132 215.821C77.3623 213.888 75.7546 212.363 73.8222 212.414C71.8898 212.465 70.3644 214.072 70.4153 216.005C70.4661 217.937 72.0738 219.462 74.0062 219.412Z"
    fill="#EDCB3A" />
  <path d="M64.3037 243.3C68.9037 277.8 100.704 302.1 135.204 297.4C130.604 262.9 98.8037 238.6 64.3037 243.3Z"
    fill="#5F7A2A" />
  <path d="M102.303 215.1C88.3033 247 102.703 284.2 134.603 298.3C148.703 266.4 134.203 229.1 102.303 215.1Z"
    fill="#709632" />
  <path
    d="M267.504 38.7C265.304 38.7 263.204 39.3 261.504 40.4C257.704 30.5 248.304 23.5 237.204 23C228.904 11.9 215.704 4.69995 200.804 4.69995C187.804 4.69995 176.104 10.2 167.804 18.9C166.304 18.7 164.804 18.6 163.204 18.6C151.404 18.6 141.104 25.1 135.704 34.7C134.504 34.4 133.304 34.2999 132.004 34.2999C123.204 34.2999 116.104 41.4 116.104 50.2H279.104C279.104 43.7999 273.904 38.7 267.504 38.7Z"
    fill="#9DC11E" />
  <path
    d="M258.704 44.1C257.404 44.1 256.104 44.4 255.004 45C252.704 39.7 247.004 36 240.204 35.7C235.204 29.8 227.104 25.9 218.004 25.9C210.104 25.9 202.904 28.8 197.904 33.5C197.004 33.4 196.004 33.3 195.104 33.3C187.904 33.3 181.704 36.8 178.404 41.9C177.704 41.7 176.904 41.7 176.204 41.7C170.904 41.7 166.504 45.5 166.504 50.2H265.704C265.804 46.8 262.604 44.1 258.704 44.1Z"
    fill="#709632" />
</svg>