<svg width="49" height="26" viewBox="0 0 49 26" fill="none" xmlns="http://www.w3.org/2000/svg">
  <path
    d="M48.9061 9.16021C48.9061 4.65639 45.2395 0.992269 40.7325 0.992269V0.954102H28.6249V0.992269H27.9756V25.7251H31.2221V17.3281H40.7325C45.2395 17.3281 48.9061 13.664 48.9061 9.16021ZM44.8575 11.9465C43.9027 13.3587 42.3367 14.122 40.7325 14.122V14.0839H31.2221V4.16021H40.6943C41.6492 4.16021 42.6422 4.42738 43.4825 4.9999C45.7742 6.56479 46.3853 9.65639 44.8575 11.9465Z"
    fill="white" />
  <path
    d="M21.5971 0.992188V13.3968H21.6353C21.6353 18.4349 17.5103 22.5571 12.4686 22.5571C7.38879 22.5571 3.30198 18.4731 3.30198 13.3968H3.34018V0.992188H0.131836V13.3968C0.131836 20.2288 5.67004 25.725 12.5068 25.725C19.3437 25.725 24.8436 20.1907 24.8818 13.3968V0.992188H21.5971Z"
    fill="white" />
</svg>