<svg width="17" height="17" viewBox="0 0 17 17" fill="none" xmlns="http://www.w3.org/2000/svg">
  <path
    d="M13.4583 1.41667H12.75V0.708333C12.75 0.317333 12.4334 0 12.0417 0C11.65 0 11.3333 0.317333 11.3333 0.708333V1.41667H5.66667V0.708333C5.66667 0.317333 5.35004 0 4.95833 0C4.56663 0 4.25 0.317333 4.25 0.708333V1.41667H3.54167C1.58879 1.41667 0 3.00546 0 4.95833V13.4583C0 15.4112 1.58879 17 3.54167 17H13.4583C15.4112 17 17 15.4112 17 13.4583V4.95833C17 3.00546 15.4112 1.41667 13.4583 1.41667ZM3.54167 2.83333H13.4583C14.6299 2.83333 15.5833 3.78675 15.5833 4.95833V5.66667H1.41667V4.95833C1.41667 3.78675 2.37008 2.83333 3.54167 2.83333ZM13.4583 15.5833H3.54167C2.37008 15.5833 1.41667 14.6299 1.41667 13.4583V7.08333H15.5833V13.4583C15.5833 14.6299 14.6299 15.5833 13.4583 15.5833ZM13.4583 9.91667C13.4583 10.3077 13.1417 10.625 12.75 10.625H4.25C3.85829 10.625 3.54167 10.3077 3.54167 9.91667C3.54167 9.52567 3.85829 9.20833 4.25 9.20833H12.75C13.1417 9.20833 13.4583 9.52567 13.4583 9.91667ZM8.5 12.75C8.5 13.141 8.18337 13.4583 7.79167 13.4583H4.25C3.85829 13.4583 3.54167 13.141 3.54167 12.75C3.54167 12.359 3.85829 12.0417 4.25 12.0417H7.79167C8.18337 12.0417 8.5 12.359 8.5 12.75Z"
    fill="url(#paint0_linear_653_28)" />
  <defs>
    <linearGradient id="paint0_linear_653_28" x1="1.5" y1="2.5" x2="22.5" y2="18" gradientUnits="userSpaceOnUse">
      <stop stop-color="#EA0000" />
      <stop offset="1" stop-color="#680909" />
    </linearGradient>
  </defs>
</svg>